<svg xmlns="http://www.w3.org/2000/svg" xmlns:xlink="http://www.w3.org/1999/xlink" width="2000" zoomAndPan="magnify" viewBox="0 0 1500 1499.999933" height="2000" preserveAspectRatio="xMidYMid meet" version="1.0"><defs><clipPath id="3e30b49a10"><path d="M 551.097656 556.617188 L 907.347656 556.617188 L 907.347656 901.617188 L 551.097656 901.617188 Z M 551.097656 556.617188 " clip-rule="nonzero"/></clipPath><clipPath id="c4c719feca"><path d="M 0.753906 0.324219 L 160.523438 0.324219 L 160.523438 41.507812 L 0.753906 41.507812 Z M 0.753906 0.324219 " clip-rule="nonzero"/></clipPath><clipPath id="91affaae66"><path d="M 0.753906 0.324219 L 160.523438 0.324219 L 160.523438 41.507812 L 0.753906 41.507812 Z M 0.753906 0.324219 " clip-rule="nonzero"/></clipPath><clipPath id="8bd9e0d067"><rect x="0" width="161" y="0" height="42"/></clipPath><clipPath id="8956d6e0f1"><path d="M 149.890625 0.308594 L 191.074219 0.308594 L 191.074219 180.792969 L 149.890625 180.792969 Z M 149.890625 0.308594 " clip-rule="nonzero"/></clipPath><clipPath id="170fa671e0"><path d="M 0.890625 0.308594 L 42.074219 0.308594 L 42.074219 180.792969 L 0.890625 180.792969 Z M 0.890625 0.308594 " clip-rule="nonzero"/></clipPath><clipPath id="880ed9e368"><rect x="0" width="43" y="0" height="181"/></clipPath><clipPath id="8097c3e2b3"><rect x="0" width="192" y="0" height="181"/></clipPath></defs><rect x="-150" width="1800" fill="#ffffff" y="-149.999993" height="1799.99992" fill-opacity="1"/><rect x="-150" width="1800" fill="#000000" y="-149.999993" height="1799.99992" fill-opacity="1"/><g clip-path="url(#3e30b49a10)"><path fill="#fe9000" d="M 907.167969 750.65625 L 779.96875 750.65625 L 865.953125 836.640625 L 837.554688 865.039062 L 749.929688 777.417969 L 749.929688 901.839844 L 709.785156 901.839844 L 709.785156 778.914062 L 618.53125 870.164062 L 588.28125 839.914062 L 677.539062 750.65625 L 551.269531 750.65625 L 551.269531 707.804688 L 680.386719 707.804688 L 593.476562 620.894531 L 621.878906 592.492188 L 709.785156 680.472656 L 709.785156 556.617188 L 749.929688 556.617188 L 749.929688 678.195312 L 839.902344 588.222656 L 870.152344 618.542969 L 780.894531 707.804688 L 907.167969 707.804688 Z M 907.167969 750.65625 " fill-opacity="1" fill-rule="nonzero"/></g><g transform="matrix(1, 0, 0, 1, 787, 492)"><g clip-path="url(#8097c3e2b3)"><g clip-path="url(#c4c719feca)"><g transform="matrix(1, 0, 0, 1, 0, 0.000000000000113687)"><g clip-path="url(#8bd9e0d067)"><g clip-path="url(#91affaae66)"><path fill="#fefefe" d="M 0.753906 0.324219 L 160.496094 0.324219 L 160.496094 41.507812 L 0.753906 41.507812 Z M 0.753906 0.324219 " fill-opacity="1" fill-rule="nonzero"/></g></g></g></g><g clip-path="url(#8956d6e0f1)"><g transform="matrix(1, 0, 0, 1, 149, 0.000000000000113687)"><g clip-path="url(#880ed9e368)"><g clip-path="url(#170fa671e0)"><path fill="#fefefe" d="M 0.890625 180.792969 L 0.890625 0.300781 L 42.074219 0.300781 L 42.074219 180.792969 Z M 0.890625 180.792969 " fill-opacity="1" fill-rule="nonzero"/></g></g></g></g></g></g></svg>