<svg xmlns="http://www.w3.org/2000/svg" xmlns:xlink="http://www.w3.org/1999/xlink" width="2000" zoomAndPan="magnify" viewBox="0 0 1500 1499.999933" height="2000" preserveAspectRatio="xMidYMid meet" version="1.0"><defs><clipPath id="9760a53094"><path d="M 548.175781 604.695312 L 901.425781 604.695312 L 901.425781 947.445312 L 548.175781 947.445312 Z M 548.175781 604.695312 " clip-rule="nonzero"/></clipPath><clipPath id="3abd1258a9"><path d="M 743.066406 604.695312 L 901.550781 604.695312 L 901.550781 755.503906 L 743.066406 755.503906 Z M 743.066406 604.695312 " clip-rule="nonzero"/></clipPath><clipPath id="d36fb94d09"><path d="M 0.0664062 0.695312 L 158.550781 0.695312 L 158.550781 151.503906 L 0.0664062 151.503906 Z M 0.0664062 0.695312 " clip-rule="nonzero"/></clipPath><clipPath id="7f9de819cf"><rect x="0" width="159" y="0" height="152"/></clipPath><clipPath id="909495981f"><path d="M 1.042969 0.851562 L 159.523438 0.851562 L 159.523438 41.703125 L 1.042969 41.703125 Z M 1.042969 0.851562 " clip-rule="nonzero"/></clipPath><clipPath id="86011337cf"><path d="M 0.0429688 0.851562 L 158.523438 0.851562 L 158.523438 41.703125 L 0.0429688 41.703125 Z M 0.0429688 0.851562 " clip-rule="nonzero"/></clipPath><clipPath id="7ee01cd988"><rect x="0" width="159" y="0" height="42"/></clipPath><clipPath id="39567b33cd"><path d="M 148.976562 0.835938 L 189.828125 0.835938 L 189.828125 179.867188 L 148.976562 179.867188 Z M 148.976562 0.835938 " clip-rule="nonzero"/></clipPath><clipPath id="87b216d113"><path d="M 0.976562 0.835938 L 41.828125 0.835938 L 41.828125 179.867188 L 0.976562 179.867188 Z M 0.976562 0.835938 " clip-rule="nonzero"/></clipPath><clipPath id="263900b882"><rect x="0" width="42" y="0" height="180"/></clipPath><clipPath id="a618445676"><rect x="0" width="190" y="0" height="180"/></clipPath></defs><g clip-path="url(#9760a53094)"><path fill="#fe9000" d="M 901.375 797.171875 L 775.203125 797.171875 L 860.496094 882.464844 L 832.324219 910.636719 L 745.40625 823.71875 L 745.40625 947.140625 L 705.582031 947.140625 L 705.582031 825.203125 L 615.0625 915.722656 L 585.054688 885.714844 L 673.597656 797.171875 L 548.339844 797.171875 L 548.339844 754.667969 L 676.421875 754.667969 L 590.210938 668.457031 L 618.382812 640.28125 L 705.582031 727.554688 L 705.582031 604.695312 L 745.40625 604.695312 L 745.40625 725.292969 L 834.652344 636.046875 L 864.660156 666.125 L 776.121094 754.667969 L 901.375 754.667969 Z M 901.375 797.171875 " fill-opacity="1" fill-rule="nonzero"/></g><g clip-path="url(#3abd1258a9)"><g transform="matrix(1, 0, 0, 1, 743, 604)"><g clip-path="url(#7f9de819cf)"><g clip-path="url(#d36fb94d09)"><path fill="#fefefe" d="M 0.0664062 0.695312 L 158.53125 0.695312 L 158.53125 151.503906 L 0.0664062 151.503906 Z M 0.0664062 0.695312 " fill-opacity="1" fill-rule="nonzero"/></g></g></g></g><g transform="matrix(1, 0, 0, 1, 762, 552)"><g clip-path="url(#a618445676)"><g clip-path="url(#909495981f)"><g transform="matrix(1, 0, 0, 1, 1, 0.000000000000113687)"><g clip-path="url(#7ee01cd988)"><g clip-path="url(#86011337cf)"><path fill="#fe9000" d="M 0.0429688 0.851562 L 158.496094 0.851562 L 158.496094 41.703125 L 0.0429688 41.703125 Z M 0.0429688 0.851562 " fill-opacity="1" fill-rule="nonzero"/></g></g></g></g><g clip-path="url(#39567b33cd)"><g transform="matrix(1, 0, 0, 1, 148, 0.000000000000113687)"><g clip-path="url(#263900b882)"><g clip-path="url(#87b216d113)"><path fill="#fe9000" d="M 0.976562 179.867188 L 0.976562 0.828125 L 41.828125 0.828125 L 41.828125 179.867188 Z M 0.976562 179.867188 " fill-opacity="1" fill-rule="nonzero"/></g></g></g></g></g></g></svg>