<svg xmlns="http://www.w3.org/2000/svg" xmlns:xlink="http://www.w3.org/1999/xlink" width="2000" zoomAndPan="magnify" viewBox="0 0 1500 1499.999933" height="2000" preserveAspectRatio="xMidYMid meet" version="1.0"><defs><clipPath id="7e288497bd"><path d="M 551.152344 536.277344 L 882.652344 536.277344 L 882.652344 858 L 551.152344 858 Z M 551.152344 536.277344 " clip-rule="nonzero"/></clipPath><clipPath id="bc49c6c635"><path d="M 734.152344 536.277344 L 882.96875 536.277344 L 882.96875 677.882812 L 734.152344 677.882812 Z M 734.152344 536.277344 " clip-rule="nonzero"/></clipPath><clipPath id="7d612b9ac5"><path d="M 0.152344 0.277344 L 148.96875 0.277344 L 148.96875 141.882812 L 0.152344 141.882812 Z M 0.152344 0.277344 " clip-rule="nonzero"/></clipPath><clipPath id="e5aa6b83e9"><rect x="0" width="149" y="0" height="142"/></clipPath><clipPath id="a10e440274"><path d="M 0.582031 0.390625 L 149.398438 0.390625 L 149.398438 38.75 L 0.582031 38.75 Z M 0.582031 0.390625 " clip-rule="nonzero"/></clipPath><clipPath id="b45c0deed5"><path d="M 0.582031 0.390625 L 149.398438 0.390625 L 149.398438 38.75 L 0.582031 38.75 Z M 0.582031 0.390625 " clip-rule="nonzero"/></clipPath><clipPath id="4a9bd3f64c"><rect x="0" width="150" y="0" height="39"/></clipPath><clipPath id="9917265a82"><path d="M 139.492188 0.378906 L 177.851562 0.378906 L 177.851562 168.488281 L 139.492188 168.488281 Z M 139.492188 0.378906 " clip-rule="nonzero"/></clipPath><clipPath id="2bdbe17211"><path d="M 0.492188 0.378906 L 38.851562 0.378906 L 38.851562 168.488281 L 0.492188 168.488281 Z M 0.492188 0.378906 " clip-rule="nonzero"/></clipPath><clipPath id="291faecb10"><rect x="0" width="39" y="0" height="169"/></clipPath><clipPath id="617e62b176"><rect x="0" width="178" y="0" height="169"/></clipPath></defs><rect x="-150" width="1800" fill="#ffffff" y="-149.999993" height="1799.99992" fill-opacity="1"/><rect x="-150" width="1800" fill="#ffffff" y="-149.999993" height="1799.99992" fill-opacity="1"/><g clip-path="url(#7e288497bd)"><path fill="#fe9000" d="M 882.808594 717.007812 L 764.332031 717.007812 L 844.421875 797.097656 L 817.96875 823.550781 L 736.351562 741.9375 L 736.351562 857.828125 L 698.960938 857.828125 L 698.960938 743.328125 L 613.964844 828.324219 L 585.789062 800.148438 L 668.925781 717.007812 L 551.3125 717.007812 L 551.3125 677.097656 L 671.578125 677.097656 L 590.628906 596.144531 L 617.082031 569.691406 L 698.960938 651.636719 L 698.960938 536.277344 L 736.351562 536.277344 L 736.351562 649.515625 L 820.15625 565.714844 L 848.332031 593.957031 L 765.191406 677.097656 L 882.808594 677.097656 Z M 882.808594 717.007812 " fill-opacity="1" fill-rule="nonzero"/></g><g clip-path="url(#bc49c6c635)"><g transform="matrix(1, 0, 0, 1, 734, 536)"><g clip-path="url(#e5aa6b83e9)"><g clip-path="url(#7d612b9ac5)"><path fill="#fefefe" d="M 0.152344 0.277344 L 148.949219 0.277344 L 148.949219 141.882812 L 0.152344 141.882812 Z M 0.152344 0.277344 " fill-opacity="1" fill-rule="nonzero"/></g></g></g></g><g transform="matrix(1, 0, 0, 1, 771, 476)"><g clip-path="url(#617e62b176)"><g clip-path="url(#a10e440274)"><g transform="matrix(1, 0, 0, 1, 0, 0.000000000000113687)"><g clip-path="url(#4a9bd3f64c)"><g clip-path="url(#b45c0deed5)"><path fill="#fefefe" d="M 0.582031 0.390625 L 149.371094 0.390625 L 149.371094 38.75 L 0.582031 38.75 Z M 0.582031 0.390625 " fill-opacity="1" fill-rule="nonzero"/></g></g></g></g><g clip-path="url(#9917265a82)"><g transform="matrix(1, 0, 0, 1, 139, 0.000000000000113687)"><g clip-path="url(#291faecb10)"><g clip-path="url(#2bdbe17211)"><path fill="#fefefe" d="M 0.492188 168.488281 L 0.492188 0.367188 L 38.851562 0.367188 L 38.851562 168.488281 Z M 0.492188 168.488281 " fill-opacity="1" fill-rule="nonzero"/></g></g></g></g></g></g></svg>