<svg xmlns="http://www.w3.org/2000/svg" xmlns:xlink="http://www.w3.org/1999/xlink" width="2000" zoomAndPan="magnify" viewBox="0 0 1500 1499.999933" height="2000" preserveAspectRatio="xMidYMid meet" version="1.0"><defs><g/><clipPath id="3e645be41d"><path d="M 482.8125 680.070312 L 653 680.070312 L 653 845 L 482.8125 845 Z M 482.8125 680.070312 " clip-rule="nonzero"/></clipPath><clipPath id="b313b43567"><path d="M 576.609375 680.070312 L 652.882812 680.070312 L 652.882812 752.648438 L 576.609375 752.648438 Z M 576.609375 680.070312 " clip-rule="nonzero"/></clipPath><clipPath id="f09e785850"><path d="M 0.609375 0.0703125 L 76.882812 0.0703125 L 76.882812 72.648438 L 0.609375 72.648438 Z M 0.609375 0.0703125 " clip-rule="nonzero"/></clipPath><clipPath id="0e5294835d"><rect x="0" width="77" y="0" height="73"/></clipPath><clipPath id="7d60eb96b7"><path d="M 595.792969 649.378906 L 672.066406 649.378906 L 672.066406 669.039062 L 595.792969 669.039062 Z M 595.792969 649.378906 " clip-rule="nonzero"/></clipPath><clipPath id="7d0279875a"><path d="M 0.792969 0.378906 L 77.066406 0.378906 L 77.066406 20.039062 L 0.792969 20.039062 Z M 0.792969 0.378906 " clip-rule="nonzero"/></clipPath><clipPath id="8996665265"><rect x="0" width="78" y="0" height="21"/></clipPath><clipPath id="6729210528"><path d="M 666.988281 649.371094 L 686.648438 649.371094 L 686.648438 735.53125 L 666.988281 735.53125 Z M 666.988281 649.371094 " clip-rule="nonzero"/></clipPath><clipPath id="5e2c010151"><path d="M 0.988281 0.371094 L 20.648438 0.371094 L 20.648438 86.53125 L 0.988281 86.53125 Z M 0.988281 0.371094 " clip-rule="nonzero"/></clipPath><clipPath id="ee48cc103f"><rect x="0" width="21" y="0" height="87"/></clipPath></defs><rect x="-150" width="1800" fill="#ffffff" y="-149.999993" height="1799.99992" fill-opacity="1"/><rect x="-150" width="1800" fill="#ffffff" y="-149.999993" height="1799.99992" fill-opacity="1"/><g clip-path="url(#3e645be41d)"><path fill="#fe9000" d="M 652.792969 772.699219 L 592.074219 772.699219 L 633.121094 813.746094 L 619.5625 827.304688 L 577.734375 785.476562 L 577.734375 844.871094 L 558.570312 844.871094 L 558.570312 786.1875 L 515.007812 829.75 L 500.566406 815.308594 L 543.175781 772.699219 L 482.898438 772.699219 L 482.898438 752.242188 L 544.535156 752.242188 L 503.046875 710.753906 L 516.605469 697.195312 L 558.570312 739.195312 L 558.570312 680.070312 L 577.734375 680.070312 L 577.734375 738.109375 L 620.683594 695.15625 L 635.125 709.632812 L 592.515625 752.242188 L 652.792969 752.242188 Z M 652.792969 772.699219 " fill-opacity="1" fill-rule="nonzero"/></g><g clip-path="url(#b313b43567)"><g transform="matrix(1, 0, 0, 1, 576, 680)"><g clip-path="url(#0e5294835d)"><g clip-path="url(#f09e785850)"><path fill="#fefefe" d="M 0.609375 0.0703125 L 76.871094 0.0703125 L 76.871094 72.648438 L 0.609375 72.648438 Z M 0.609375 0.0703125 " fill-opacity="1" fill-rule="nonzero"/></g></g></g></g><g clip-path="url(#7d60eb96b7)"><g transform="matrix(1, 0, 0, 1, 595, 649)"><g clip-path="url(#8996665265)"><g clip-path="url(#7d0279875a)"><path fill="#fefefe" d="M 0.792969 0.378906 L 77.050781 0.378906 L 77.050781 20.039062 L 0.792969 20.039062 Z M 0.792969 0.378906 " fill-opacity="1" fill-rule="nonzero"/></g></g></g></g><g clip-path="url(#6729210528)"><g transform="matrix(1, 0, 0, 1, 666, 649)"><g clip-path="url(#ee48cc103f)"><g clip-path="url(#5e2c010151)"><path fill="#fefefe" d="M 0.988281 86.53125 L 0.988281 0.367188 L 20.648438 0.367188 L 20.648438 86.53125 Z M 0.988281 86.53125 " fill-opacity="1" fill-rule="nonzero"/></g></g></g></g><g fill="#f0abef" fill-opacity="1"><g transform="translate(706.346296, 823.825229)"><g><path d="M 39.609375 25.203125 C 33.921875 25.203125 29.050781 24.488281 25 23.0625 C 20.957031 21.644531 17.640625 19.726562 15.046875 17.3125 C 12.460938 14.90625 10.535156 12.191406 9.265625 9.171875 C 7.992188 6.160156 7.296875 3.082031 7.171875 -0.0625 L 21.90625 -0.0625 C 22.375 2.257812 23.234375 4.328125 24.484375 6.140625 C 25.734375 7.953125 27.570312 9.382812 30 10.4375 C 32.4375 11.488281 35.617188 12.015625 39.546875 12.015625 C 43.160156 12.015625 46.238281 11.5 48.78125 10.46875 C 51.320312 9.4375 53.390625 8.015625 54.984375 6.203125 C 56.578125 4.390625 57.738281 2.3125 58.46875 -0.03125 C 59.207031 -2.375 59.578125 -4.84375 59.578125 -7.4375 L 59.578125 -14.21875 C 57.335938 -9.863281 54.179688 -6.671875 50.109375 -4.640625 C 46.035156 -2.617188 41.523438 -1.609375 36.578125 -1.609375 C 31.878906 -1.609375 27.554688 -2.46875 23.609375 -4.1875 C 19.671875 -5.914062 16.28125 -8.285156 13.4375 -11.296875 C 10.59375 -14.316406 8.382812 -17.816406 6.8125 -21.796875 C 5.238281 -25.785156 4.453125 -30.039062 4.453125 -34.5625 C 4.453125 -39.09375 5.226562 -43.378906 6.78125 -47.421875 C 8.332031 -51.472656 10.519531 -55.082031 13.34375 -58.25 C 16.164062 -61.414062 19.503906 -63.898438 23.359375 -65.703125 C 27.210938 -67.515625 31.441406 -68.421875 36.046875 -68.421875 C 40.015625 -68.421875 43.5625 -67.785156 46.6875 -66.515625 C 49.8125 -65.242188 52.457031 -63.597656 54.625 -61.578125 C 56.800781 -59.554688 58.472656 -57.398438 59.640625 -55.109375 L 59.640625 -66.421875 L 74.5 -66.421875 L 74.5 -7.625 C 74.5 -2.96875 73.742188 1.347656 72.234375 5.328125 C 70.722656 9.316406 68.484375 12.796875 65.515625 15.765625 C 62.546875 18.734375 58.894531 21.046875 54.5625 22.703125 C 50.238281 24.367188 45.253906 25.203125 39.609375 25.203125 Z M 39.484375 -15.1875 C 42.191406 -15.1875 44.726562 -15.691406 47.09375 -16.703125 C 49.46875 -17.710938 51.546875 -19.125 53.328125 -20.9375 C 55.117188 -22.75 56.507812 -24.828125 57.5 -27.171875 C 58.488281 -29.515625 58.984375 -32 58.984375 -34.625 C 58.984375 -37.21875 58.488281 -39.675781 57.5 -42 C 56.507812 -44.320312 55.128906 -46.375 53.359375 -48.15625 C 51.597656 -49.945312 49.53125 -51.359375 47.15625 -52.390625 C 44.789062 -53.429688 42.234375 -53.953125 39.484375 -53.953125 C 35.816406 -53.953125 32.507812 -53.132812 29.5625 -51.5 C 26.613281 -49.863281 24.273438 -47.601562 22.546875 -44.71875 C 20.828125 -41.832031 19.96875 -38.46875 19.96875 -34.625 C 19.96875 -30.882812 20.828125 -27.546875 22.546875 -24.609375 C 24.273438 -21.679688 26.613281 -19.378906 29.5625 -17.703125 C 32.507812 -16.023438 35.816406 -15.1875 39.484375 -15.1875 Z M 39.484375 -15.1875 "/></g></g></g><g fill="#f0abef" fill-opacity="1"><g transform="translate(787.109259, 823.825229)"><g><path d="M 72.359375 -34.375 C 72.359375 -33.550781 72.335938 -32.773438 72.296875 -32.046875 C 72.253906 -31.316406 72.171875 -30.328125 72.046875 -29.078125 L 20.15625 -29.078125 C 20.71875 -25.460938 21.867188 -22.382812 23.609375 -19.84375 C 25.359375 -17.300781 27.523438 -15.347656 30.109375 -13.984375 C 32.691406 -12.628906 35.515625 -11.953125 38.578125 -11.953125 C 42.535156 -11.953125 45.742188 -12.738281 48.203125 -14.3125 C 50.660156 -15.882812 52.445312 -18.070312 53.5625 -20.875 L 70.625 -20.875 C 69.800781 -17.894531 68.453125 -15.023438 66.578125 -12.265625 C 64.703125 -9.515625 62.40625 -7.070312 59.6875 -4.9375 C 56.976562 -2.8125 53.867188 -1.125 50.359375 0.125 C 46.847656 1.375 43.023438 2 38.890625 2 C 33.898438 2 29.300781 1.085938 25.09375 -0.734375 C 20.894531 -2.566406 17.253906 -5.097656 14.171875 -8.328125 C 11.097656 -11.566406 8.707031 -15.316406 7 -19.578125 C 5.300781 -23.835938 4.453125 -28.382812 4.453125 -33.21875 C 4.453125 -38.082031 5.300781 -42.632812 7 -46.875 C 8.707031 -51.113281 11.097656 -54.847656 14.171875 -58.078125 C 17.253906 -61.316406 20.894531 -63.847656 25.09375 -65.671875 C 29.300781 -67.503906 33.898438 -68.421875 38.890625 -68.421875 C 43.890625 -68.421875 48.445312 -67.515625 52.5625 -65.703125 C 56.675781 -63.898438 60.207031 -61.414062 63.15625 -58.25 C 66.101562 -55.082031 68.375 -51.453125 69.96875 -47.359375 C 71.5625 -43.265625 72.359375 -38.9375 72.359375 -34.375 Z M 20.8125 -41.15625 L 56.40625 -41.15625 C 56.1875 -43.65625 55.257812 -45.925781 53.625 -47.96875 C 51.988281 -50.019531 49.878906 -51.671875 47.296875 -52.921875 C 44.710938 -54.171875 41.890625 -54.796875 38.828125 -54.796875 C 36.203125 -54.796875 33.679688 -54.3125 31.265625 -53.34375 C 28.859375 -52.375 26.738281 -50.882812 24.90625 -48.875 C 23.070312 -46.875 21.707031 -44.300781 20.8125 -41.15625 Z M 20.8125 -41.15625 "/></g></g></g><g fill="#f0abef" fill-opacity="1"><g transform="translate(860.118622, 823.825229)"><g><path d="M 39.34375 2 C 34.3125 2 29.660156 1.097656 25.390625 -0.703125 C 21.128906 -2.515625 17.4375 -5.035156 14.3125 -8.265625 C 11.1875 -11.492188 8.757812 -15.238281 7.03125 -19.5 C 5.3125 -23.769531 4.453125 -28.34375 4.453125 -33.21875 C 4.453125 -38.082031 5.3125 -42.632812 7.03125 -46.875 C 8.757812 -51.113281 11.1875 -54.847656 14.3125 -58.078125 C 17.4375 -61.316406 21.128906 -63.847656 25.390625 -65.671875 C 29.660156 -67.503906 34.335938 -68.421875 39.421875 -68.421875 C 44.546875 -68.421875 49.238281 -67.503906 53.5 -65.671875 C 57.757812 -63.847656 61.460938 -61.316406 64.609375 -58.078125 C 67.753906 -54.847656 70.1875 -51.113281 71.90625 -46.875 C 73.632812 -42.632812 74.5 -38.082031 74.5 -33.21875 C 74.5 -28.300781 73.632812 -23.71875 71.90625 -19.46875 C 70.1875 -15.226562 67.753906 -11.492188 64.609375 -8.265625 C 61.460938 -5.035156 57.742188 -2.515625 53.453125 -0.703125 C 49.171875 1.097656 44.46875 2 39.34375 2 Z M 39.484375 -12.53125 C 43.222656 -12.53125 46.554688 -13.421875 49.484375 -15.203125 C 52.421875 -16.992188 54.738281 -19.441406 56.4375 -22.546875 C 58.132812 -25.648438 58.984375 -29.207031 58.984375 -33.21875 C 58.984375 -37.21875 58.132812 -40.78125 56.4375 -43.90625 C 54.738281 -47.03125 52.421875 -49.484375 49.484375 -51.265625 C 46.554688 -53.054688 43.222656 -53.953125 39.484375 -53.953125 C 35.773438 -53.953125 32.441406 -53.054688 29.484375 -51.265625 C 26.535156 -49.484375 24.210938 -47.03125 22.515625 -43.90625 C 20.816406 -40.78125 19.96875 -37.21875 19.96875 -33.21875 C 19.96875 -29.207031 20.816406 -25.648438 22.515625 -22.546875 C 24.210938 -19.441406 26.535156 -16.992188 29.484375 -15.203125 C 32.441406 -13.421875 35.773438 -12.53125 39.484375 -12.53125 Z M 39.484375 -12.53125 "/></g></g></g><g fill="#f0abef" fill-opacity="1"><g transform="translate(936.164811, 823.825229)"><g><path d="M 30.046875 0 L 14.40625 0 L 14.40625 -53.046875 L 1.15625 -53.046875 L 1.15625 -66.421875 L 14.40625 -66.421875 L 14.40625 -70.234375 C 14.40625 -72.773438 14.78125 -75.316406 15.53125 -77.859375 C 16.289062 -80.398438 17.476562 -82.722656 19.09375 -84.828125 C 20.707031 -86.941406 22.828125 -88.632812 25.453125 -89.90625 C 28.085938 -91.175781 31.273438 -91.8125 35.015625 -91.8125 L 47.75 -91.8125 L 47.75 -78.828125 L 38.96875 -78.828125 C 37.019531 -78.828125 35.390625 -78.375 34.078125 -77.46875 C 32.765625 -76.5625 31.765625 -75.363281 31.078125 -73.875 C 30.390625 -72.394531 30.046875 -70.769531 30.046875 -69 L 30.046875 -66.421875 L 47.421875 -66.421875 L 47.421875 -53.046875 L 30.046875 -53.046875 Z M 30.046875 0 "/></g></g></g><g fill="#f0abef" fill-opacity="1"><g transform="translate(981.713506, 823.825229)"><g><path d="M 16.859375 -76.765625 C 13.847656 -76.765625 11.488281 -77.632812 9.78125 -79.375 C 8.082031 -81.125 7.234375 -83.242188 7.234375 -85.734375 C 7.234375 -88.148438 8.082031 -90.238281 9.78125 -92 C 11.488281 -93.769531 13.867188 -94.65625 16.921875 -94.65625 C 20.066406 -94.65625 22.488281 -93.769531 24.1875 -92 C 25.894531 -90.238281 26.75 -88.148438 26.75 -85.734375 C 26.75 -83.242188 25.894531 -81.125 24.1875 -79.375 C 22.488281 -77.632812 20.046875 -76.765625 16.859375 -76.765625 Z M 24.8125 0 L 9.171875 0 L 9.171875 -66.421875 L 24.8125 -66.421875 Z M 24.8125 0 "/></g></g></g><g fill="#f0abef" fill-opacity="1"><g transform="translate(1012.724199, 823.825229)"><g><path d="M 19.765625 0 L 1.6875 0 L 23.65625 -34.25 L 2.515625 -66.421875 L 20.875 -66.421875 L 34.5 -44.578125 L 34.5625 -44.578125 L 48.203125 -66.421875 L 66.484375 -66.421875 L 45.421875 -34.25 L 67.453125 0 L 48.90625 0 L 34.375 -23.328125 Z M 19.765625 0 "/></g></g></g></svg>